<svg width="76" height="75" viewBox="0 0 76 75" fill="none" xmlns="http://www.w3.org/2000/svg">
<g clip-path="url(#clip0_56665_16926)">
<path d="M16.4994 31.3796H59.5006C59.659 31.3796 59.8462 31.394 60.0478 31.4228C60.5519 31.5092 61.1711 31.6964 61.6607 32.0853C62.2224 32.5173 62.6256 33.1653 62.6256 34.1014C62.6256 34.2598 62.6112 34.4326 62.5824 34.6054L59.3422 56.1492C59.2414 56.8692 58.9246 57.5461 58.4349 58.0213V58.0357C57.9597 58.5109 57.3261 58.8134 56.5628 58.8134H19.4372C18.6884 58.8134 18.0403 58.5109 17.5651 58.0357C17.0755 57.5461 16.7587 56.8692 16.6578 56.1492L13.4176 34.6054C13.3888 34.4326 13.3888 34.2598 13.3888 34.1014C13.3888 33.1653 13.7921 32.5173 14.3393 32.0853C14.8433 31.6964 15.4482 31.5092 15.9522 31.4228C16.1538 31.394 16.341 31.3796 16.4994 31.3796ZM66.9603 22.7391C67.3635 23.0127 67.4787 23.5599 67.2051 23.9631C66.9315 24.3808 66.3842 24.4816 65.981 24.2079L62.3808 21.8174V16.6763C62.3808 16.1866 62.784 15.7978 63.2736 15.7978C63.7633 15.7978 64.1665 16.1866 64.1665 16.6763V20.8669L66.9603 22.7391ZM63.2736 13.004C65.5778 13.004 67.6659 13.9401 69.178 15.4522C70.6901 16.9499 71.6118 19.038 71.6118 21.3422C71.6118 23.6463 70.6901 25.7344 69.178 27.2465C67.6659 28.7586 65.5778 29.6947 63.2736 29.6947C60.9695 29.6947 58.8814 28.7586 57.3693 27.2465C55.8572 25.7344 54.9355 23.6463 54.9355 21.3422C54.9355 19.038 55.8572 16.9499 57.3693 15.4522C58.8814 13.9401 60.9695 13.004 63.2736 13.004ZM67.9251 16.7051C66.7299 15.5098 65.0882 14.7753 63.2736 14.7753C61.4591 14.7753 59.8174 15.5098 58.6221 16.7051C57.4413 17.8859 56.7068 19.5276 56.7068 21.3422C56.7068 23.1567 57.4413 24.7984 58.6221 25.9937C59.8174 27.1745 61.4591 27.909 63.2736 27.909C65.0882 27.909 66.7299 27.1745 67.9251 25.9937C69.106 24.7984 69.8405 23.1567 69.8405 21.3422C69.8405 19.5276 69.106 17.8859 67.9251 16.7051ZM46.0357 22.4366L41.053 25.3024L38.8209 24.0207L32.6861 25.6768L29.7627 22.7535C28.3946 24.856 27.8906 27.4049 28.337 29.8675C26.3929 29.8675 24.4487 29.8675 22.4902 29.8675V26.1377C22.4902 25.4032 22.7926 24.7408 23.2823 24.2511C23.5703 23.9631 23.9303 23.7327 24.3335 23.6031C25.0392 21.443 26.2633 19.4988 27.833 17.9291C30.4395 15.3226 34.0254 13.7097 38 13.7097C41.9747 13.7097 45.5749 15.3226 48.1671 17.9291C49.7512 19.4988 50.9608 21.443 51.6665 23.6031C52.0697 23.7327 52.4297 23.9631 52.7322 24.2511C53.2074 24.7408 53.5098 25.4032 53.5098 26.1377V29.8675C51.5657 29.8675 49.6072 29.8675 47.663 29.8675C48.1383 27.2753 47.5622 24.5968 46.0357 22.4366ZM49.78 23.5743C49.1319 21.9038 48.1527 20.4205 46.9142 19.182C44.6388 16.8923 41.485 15.481 38 15.481C34.515 15.481 31.3756 16.8923 29.0858 19.182C27.8474 20.4205 26.8681 21.9038 26.2345 23.5743C26.5657 23.6607 26.8681 23.8191 27.1417 24.0351C27.7178 22.4654 28.6394 21.0541 29.8059 19.8877C31.894 17.7851 34.803 16.4891 38 16.4891C41.2114 16.4891 44.106 17.7851 46.2085 19.8877C47.3606 21.0541 48.2823 22.4654 48.8727 24.0351C49.1319 23.8191 49.4487 23.6607 49.78 23.5743ZM4.60428 62.0104C4.08584 62.0104 3.68262 61.6071 3.68262 61.1175C3.68262 60.6279 4.08584 60.2247 4.60428 60.2247H71.4101C71.9142 60.2247 72.3318 60.6279 72.3318 61.1175C72.3318 61.6071 71.9142 62.0104 71.4101 62.0104H4.60428ZM40.9666 45.0893C40.9666 44.2684 40.6354 43.534 40.1026 43.0012C39.5697 42.4539 38.8209 42.1227 38 42.1227C37.1792 42.1227 36.4447 42.4539 35.8975 43.0012C35.3646 43.534 35.0334 44.2684 35.0334 45.0893C35.0334 45.9101 35.3646 46.659 35.8975 47.1918C36.4447 47.7391 37.1792 48.0703 38 48.0703C39.5265 48.0703 40.9666 46.6878 40.9666 45.0893ZM41.0674 48.7183L42.4355 51.0945C42.6659 51.5121 42.5219 52.0593 42.1043 52.2897C41.6867 52.5346 41.1394 52.3905 40.8946 51.9729L39.5265 49.5968C39.0513 49.7552 38.5329 49.8416 38 49.8416C36.6895 49.8416 35.5087 49.3088 34.6446 48.4447C33.7805 47.595 33.2621 46.3998 33.2621 45.0893C33.2621 43.7788 33.7805 42.5979 34.6446 41.7339C35.5087 40.8842 36.6895 40.3514 38 40.3514C39.3105 40.3514 40.5058 40.8842 41.3554 41.7339C42.2195 42.5979 42.7523 43.7788 42.7523 45.0893C42.7523 46.3998 42.2195 47.595 41.3554 48.4447C41.269 48.5455 41.1682 48.6319 41.0674 48.7183ZM59.5006 33.1509H16.4994C16.4274 33.1509 16.3266 33.1653 16.2258 33.1797H16.2114C15.9522 33.2229 15.6498 33.3093 15.4338 33.4821C15.2754 33.6117 15.1602 33.799 15.1602 34.1014C15.1602 34.1734 15.1602 34.2598 15.1746 34.3462L18.4148 55.89C18.458 56.2356 18.602 56.5524 18.818 56.7684C18.9764 56.9268 19.1924 57.0277 19.4372 57.0277H56.5628C56.8076 57.0277 57.0236 56.9268 57.182 56.7684C57.3981 56.5668 57.5421 56.25 57.5997 55.89L60.8255 34.3462C60.8399 34.2598 60.8399 34.1734 60.8399 34.1014C60.8399 33.799 60.7247 33.6117 60.5663 33.4821C60.3503 33.3093 60.0478 33.2229 59.7886 33.1797C59.6878 33.1653 59.587 33.1509 59.5006 33.1509Z" fill="#20AEE3"/>
</g>
<defs>
<clipPath id="clip0_56665_16926">
<rect width="75" height="75" fill="white" transform="translate(0.5)"/>
</clipPath>
</defs>
</svg>
