<svg width="76" height="75" viewBox="0 0 76 75" fill="none" xmlns="http://www.w3.org/2000/svg">
<g clip-path="url(#clip0_56731_18640)">
<path d="M16.5096 31.3865H59.5032C59.6644 31.3865 59.8504 31.3989 60.0488 31.4237C60.5572 31.4981 61.1649 31.6965 61.6609 32.0809C62.219 32.5273 62.6282 33.1722 62.6282 34.1022C62.6282 34.2635 62.6158 34.4247 62.5786 34.6107L59.3544 56.1509C59.2428 56.8701 58.9203 57.5397 58.4367 58.0234C57.9531 58.507 57.3206 58.8046 56.5642 58.8046H19.4362C18.6798 58.8046 18.0473 58.507 17.5637 58.0234C17.0801 57.5397 16.77 56.8701 16.6584 56.1509L13.4218 34.6107C13.397 34.4247 13.3846 34.2635 13.3846 34.1022C13.3846 33.1722 13.7939 32.5149 14.3395 32.0809C14.8355 31.6965 15.4432 31.4981 15.9516 31.4237C16.1624 31.3989 16.3484 31.3865 16.5096 31.3865ZM63.5954 12.9961C65.902 12.9961 67.9853 13.9386 69.4858 15.4515C70.9987 16.9519 71.9412 19.0353 71.9412 21.3418C71.9412 23.6484 70.9987 25.7317 69.4858 27.2446C67.9853 28.7575 65.902 29.6876 63.5954 29.6876C61.2889 29.6876 59.2056 28.7575 57.6927 27.2446C56.1798 25.7317 55.2497 23.6484 55.2497 21.3418C55.2497 19.0353 56.1798 16.9519 57.6927 15.4515C59.2056 13.9386 61.2889 12.9961 63.5954 12.9961ZM68.8906 17.4604L59.7016 26.6494C60.7929 27.443 62.1445 27.9142 63.5954 27.9142C65.406 27.9142 67.0429 27.1826 68.2333 25.9921C69.4238 24.8016 70.1555 23.1647 70.1555 21.3418C70.1555 19.8909 69.6842 18.5516 68.8906 17.4604ZM58.2879 25.2357L67.4769 16.0467C66.3856 15.253 65.0463 14.7818 63.5954 14.7818C61.7725 14.7818 60.1356 15.5135 58.9451 16.7039C57.7547 17.8944 57.023 19.5313 57.023 21.3418C57.023 22.7927 57.4942 24.1444 58.2879 25.2357ZM39.0047 26.4882V29.8736H37.0081V26.4882H33.0027C31.6262 26.4882 30.3613 25.9177 29.4437 25.0001C28.526 24.0824 27.9556 22.8175 27.9556 21.4286V20.0149C27.9556 18.6261 28.526 17.3612 29.4313 16.4435H29.4437C30.3613 15.5259 31.6262 14.9554 33.0027 14.9554H42.9977C44.3866 14.9554 45.6515 15.5259 46.5691 16.4435C47.4868 17.3612 48.0572 18.6261 48.0572 20.0149V21.4286C48.0572 22.8175 47.4868 24.0824 46.5691 25.0001C45.6515 25.9177 44.3866 26.4882 42.9977 26.4882H39.0047ZM42.9977 16.9519H33.0027C32.1718 16.9519 31.403 17.2992 30.8449 17.8448V17.8572C30.2993 18.4028 29.9521 19.1717 29.9521 20.0149V21.4286C29.9521 22.2719 30.2993 23.0283 30.8449 23.5864C31.403 24.1444 32.1718 24.4792 33.0027 24.4792H42.9977C43.841 24.4792 44.5974 24.1444 45.1555 23.5864C45.7135 23.0283 46.0483 22.2719 46.0483 21.4286V20.0149C46.0483 19.1717 45.7135 18.4028 45.1555 17.8572C44.5974 17.2992 43.841 16.9519 42.9977 16.9519ZM4.60486 62.004C4.08403 62.004 3.6748 61.6072 3.6748 61.1112C3.6748 60.6275 4.08403 60.2307 4.60486 60.2307H71.4079C71.9164 60.2307 72.3256 60.6275 72.3256 61.1112C72.3256 61.6072 71.9164 62.004 71.4079 62.004H4.60486ZM40.9764 45.0893C40.9764 44.2709 40.6416 43.5268 40.1083 42.9936C39.5627 42.4604 38.8187 42.1256 38.0002 42.1256C37.1817 42.1256 36.4377 42.4604 35.9045 42.9936C35.3588 43.5268 35.0364 44.2709 35.0364 45.0893C35.0364 45.9202 35.3588 46.6642 35.9045 47.1975C36.4377 47.7307 37.1817 48.0655 38.0002 48.0655C39.5255 48.0655 40.9764 46.689 40.9764 45.0893ZM41.0632 48.7228L42.4273 51.0913C42.6753 51.513 42.5265 52.0462 42.1049 52.2942C41.6832 52.5422 41.1376 52.3934 40.902 51.9718L39.5255 49.5908C39.0419 49.752 38.5334 49.8389 38.0002 49.8389C36.6981 49.8389 35.5076 49.3056 34.652 48.45C33.7839 47.5943 33.2507 46.4038 33.2507 45.0893C33.2507 43.7873 33.7839 42.5968 34.652 41.7411C35.5076 40.8855 36.6981 40.3522 38.0002 40.3522C39.3147 40.3522 40.5052 40.8855 41.3608 41.7411C42.2165 42.5968 42.7497 43.7873 42.7497 45.0893C42.7497 46.4038 42.2165 47.5943 41.3608 48.45C41.2616 48.5492 41.1624 48.636 41.0632 48.7228ZM59.5032 33.1598H16.5096C16.4228 33.1598 16.3236 33.1598 16.2244 33.1846H16.212C15.9516 33.2218 15.654 33.3086 15.4432 33.4822C15.2819 33.6062 15.1579 33.8046 15.1579 34.1022C15.1579 34.1767 15.1703 34.2635 15.1827 34.3379L18.4069 55.8904C18.469 56.2377 18.6054 56.5601 18.8162 56.7709C18.9774 56.9321 19.1882 57.0313 19.4362 57.0313H56.5642C56.8122 57.0313 57.023 56.9321 57.1842 56.7709C57.395 56.5601 57.5439 56.2377 57.5935 55.8904L60.8301 34.3379C60.8425 34.2635 60.8425 34.1767 60.8425 34.1022C60.8425 33.8046 60.7309 33.6062 60.5696 33.4822C60.3464 33.3086 60.0488 33.2218 59.7884 33.1846C59.6768 33.1598 59.59 33.1598 59.5032 33.1598Z" fill="#20AEE3"/>
</g>
<defs>
<clipPath id="clip0_56731_18640">
<rect width="75" height="75" fill="white" transform="translate(0.5)"/>
</clipPath>
</defs>
</svg>
