<svg width="166" height="31" viewBox="0 0 166 31" fill="none" xmlns="http://www.w3.org/2000/svg">
<path d="M90.0119 17.7286C87.9485 15.8597 86.937 13.4627 86.937 10.5172C86.937 7.57175 87.9889 5.15443 90.0321 3.30589C92.0753 1.45735 94.7052 0.502609 97.861 0.502609C98.6405 0.486175 99.4198 0.547415 100.187 0.68543C100.721 0.787928 101.248 0.923613 101.765 1.0917L103.282 1.70111V7.12485C98.124 4.46376 92.8238 6.23105 93.0059 10.5985C93.0059 12.122 93.4307 13.2799 94.341 14.1331C95.2181 14.9688 96.3892 15.4217 97.598 15.3925C98.5892 15.3925 99.358 15.1894 99.8839 14.844V8.91245H105.811V17.5864C105.063 18.3989 103.93 19.1099 102.433 19.6787C100.889 20.2653 99.2487 20.5547 97.598 20.5319C94.5905 20.5319 92.0618 19.5974 90.0119 17.7286Z" fill="#252525"/>
<path d="M107.963 0.831146H113.881V12.1797C113.881 14.2375 115.137 15.1543 116.758 15.1543C118.38 15.1543 119.616 14.2375 119.616 12.1797V0.831146H125.513V12.1389C125.513 14.8283 124.702 16.9065 123.02 18.3531C121.338 19.7997 119.292 20.5331 116.758 20.5331C114.225 20.5331 112.138 19.82 110.476 18.3531C108.815 16.8861 107.963 14.8283 107.963 12.1389V0.831146Z" fill="#252525"/>
<path d="M147.036 20.202H140.078L134.936 13.2955H134.12V20.202H128.162V0.831146H137.507C139.691 0.831146 141.466 1.40328 142.792 2.58842C143.437 3.13839 143.951 3.82548 144.297 4.59963C144.643 5.37377 144.812 6.21545 144.792 7.06333C144.792 9.49491 143.465 11.5178 141.241 12.6212L147.036 20.202ZM136.814 8.9432C137.936 8.9432 138.67 8.3302 138.67 7.36983C138.67 6.40946 137.936 5.81689 136.814 5.81689H134.12V8.9432H136.814Z" fill="#252525"/>
<path d="M148.03 0.831146H153.947V12.1797C153.947 14.2375 155.204 15.1543 156.825 15.1543C158.446 15.1543 159.682 14.2375 159.682 12.1797V0.831146H165.579V12.1389C165.579 14.8283 164.769 16.9065 163.087 18.3531C161.405 19.7997 159.358 20.5331 156.825 20.5331C154.292 20.5331 152.204 19.82 150.522 18.3531C148.84 16.8861 148.03 14.8283 148.03 12.1389V0.831146Z" fill="#252525"/>
<path d="M81.9209 8.1721C82.2587 8.49409 82.5257 8.88256 82.7051 9.31289C82.8845 9.74322 82.9722 10.206 82.9628 10.672C82.9628 11.6134 82.5899 12.5167 81.9253 13.1853C81.2607 13.8539 80.3581 14.2336 79.4142 14.2417C78.4548 14.2417 77.6192 13.8919 76.8868 13.1924C76.5509 12.8646 76.2853 12.4722 76.1062 12.0389C75.9271 11.6056 75.8382 11.1406 75.8449 10.672C75.8355 10.206 75.9232 9.74322 76.1026 9.31289C76.2819 8.88256 76.549 8.49409 76.8868 8.1721C77.2142 7.83475 77.6072 7.56765 78.0418 7.38721C78.4764 7.20677 78.9434 7.11679 79.4142 7.12278C79.8816 7.11839 80.345 7.20919 80.776 7.38962C81.2071 7.57005 81.5966 7.83631 81.9209 8.1721Z" fill="#00DDB5"/>
<path d="M40.8243 20.5218C38.2231 20.2189 36.1121 19.1083 34.4413 17.2C32.7706 15.2917 31.9702 13.0805 31.9702 10.5664C31.9702 7.77974 32.9307 5.4272 34.8816 3.45834C36.8324 1.48948 39.2936 0.5 42.2449 0.5C45.1963 0.5 47.6474 1.49958 49.5883 3.45834C51.5292 5.4171 52.4996 7.77974 52.4996 10.5664C52.5161 12.451 51.9984 14.3011 51.0076 15.8986C50.0167 17.496 48.594 18.7743 46.9071 19.5828C47.4573 20.2694 48.2177 20.6026 49.2381 20.6026C50.0314 20.6097 50.8133 20.4116 51.5092 20.0271V24.8634C50.4862 25.2955 49.3866 25.512 48.2777 25.4995C45.7265 25.4995 43.6456 24.3888 42.0248 22.208L40.8243 20.5218ZM42.2449 15.2109C43.4855 15.2109 44.496 14.7667 45.2863 13.9185C46.0767 13.0704 46.4969 11.9194 46.4969 10.5664C46.4969 9.21347 46.0867 8.10283 45.2863 7.25471C44.486 6.40658 43.4855 5.92194 42.2449 5.92194C41.0044 5.92194 40.0039 6.3662 39.2035 7.25471C38.4032 8.14322 38.003 9.21347 38.003 10.5664C38.003 11.9194 38.4132 13.03 39.2035 13.9185C39.9939 14.8071 41.0144 15.2109 42.2449 15.2109Z" fill="#252525"/>
<path d="M52.9966 20.202L60.9182 0.831146H66.5679L74.5198 20.202H68.1664L66.7891 16.5951H60.5061L59.1087 20.202H52.9966ZM62.2151 12.1643H65.05L63.6426 7.59286L62.2151 12.1643Z" fill="#252525"/>
<rect x="17.7021" y="25.3344" width="20.6623" height="5.16556" fill="#00DDB5"/>
<path d="M18.2384 10.0325V16.398L0 23.0139V16.9344L10.8358 13.2152L0 9.49603V3.41656L18.2384 10.0325Z" fill="#00DDB5"/>
</svg>
