<svg width="166" height="31" viewBox="0 0 166 31" fill="none" xmlns="http://www.w3.org/2000/svg">
<path d="M90.2224 17.7286C88.1589 15.8597 87.1475 13.4627 87.1475 10.5172C87.1475 7.57175 88.1994 5.15443 90.2426 3.30589C92.2858 1.45735 94.9156 0.502609 98.0714 0.502609C98.851 0.486175 99.6303 0.547415 100.398 0.68543C100.932 0.787928 101.459 0.923613 101.976 1.0917L103.493 1.70111V7.12485C98.3344 4.46376 93.0343 6.23105 93.2163 10.5985C93.2163 12.122 93.6411 13.2799 94.5515 14.1331C95.4286 14.9688 96.5996 15.4217 97.8084 15.3925C98.7997 15.3925 99.5684 15.1894 100.094 14.844V8.91245H106.022V17.5864C105.273 18.3989 104.14 19.1099 102.643 19.6787C101.099 20.2653 99.4591 20.5547 97.8084 20.5319C94.801 20.5319 92.2723 19.5974 90.2224 17.7286Z" fill="white"/>
<path d="M108.174 0.831146H114.091V12.1797C114.091 14.2375 115.348 15.1543 116.969 15.1543C118.59 15.1543 119.826 14.2375 119.826 12.1797V0.831146H125.723V12.1389C125.723 14.8283 124.913 16.9065 123.231 18.3531C121.549 19.7997 119.502 20.5331 116.969 20.5331C114.436 20.5331 112.348 19.82 110.687 18.3531C109.025 16.8861 108.174 14.8283 108.174 12.1389V0.831146Z" fill="white"/>
<path d="M147.246 20.202H140.288L135.146 13.2955H134.33V20.202H128.372V0.831146H137.717C139.901 0.831146 141.676 1.40328 143.002 2.58842C143.647 3.13839 144.161 3.82548 144.507 4.59963C144.853 5.37377 145.022 6.21545 145.002 7.06333C145.002 9.49491 143.675 11.5178 141.451 12.6212L147.246 20.202ZM137.024 8.9432C138.146 8.9432 138.88 8.3302 138.88 7.36983C138.88 6.40946 138.146 5.81689 137.024 5.81689H134.33V8.9432H137.024Z" fill="white"/>
<path d="M148.24 0.831146H154.158V12.1797C154.158 14.2375 155.414 15.1543 157.035 15.1543C158.657 15.1543 159.893 14.2375 159.893 12.1797V0.831146H165.79V12.1389C165.79 14.8283 164.979 16.9065 163.297 18.3531C161.615 19.7997 159.568 20.5331 157.035 20.5331C154.502 20.5331 152.415 19.82 150.733 18.3531C149.051 16.8861 148.24 14.8283 148.24 12.1389V0.831146Z" fill="white"/>
<path d="M82.1313 8.1721C82.4691 8.49409 82.7362 8.88256 82.9155 9.31289C83.0949 9.74322 83.1826 10.206 83.1732 10.672C83.1732 11.6134 82.8004 12.5167 82.1357 13.1853C81.4711 13.8539 80.5686 14.2336 79.6246 14.2417C78.6652 14.2417 77.8297 13.8919 77.0973 13.1924C76.7613 12.8646 76.4957 12.4722 76.3166 12.0389C76.1375 11.6056 76.0486 11.1406 76.0554 10.672C76.0459 10.206 76.1337 9.74322 76.313 9.31289C76.4924 8.88256 76.7594 8.49409 77.0973 8.1721C77.4246 7.83475 77.8177 7.56765 78.2523 7.38721C78.6869 7.20677 79.1539 7.11679 79.6246 7.12278C80.092 7.11839 80.5555 7.20919 80.9865 7.38962C81.4175 7.57005 81.8071 7.83631 82.1313 8.1721Z" fill="#00DDB5"/>
<path d="M41.0347 20.5218C38.4335 20.2189 36.3226 19.1083 34.6518 17.2C32.981 15.2917 32.1807 13.0805 32.1807 10.5664C32.1807 7.77974 33.1411 5.4272 35.092 3.45834C37.0429 1.48948 39.504 0.5 42.4554 0.5C45.4067 0.5 47.8579 1.49958 49.7987 3.45834C51.7396 5.4171 52.7101 7.77974 52.7101 10.5664C52.7266 12.451 52.2089 14.3011 51.218 15.8986C50.2272 17.496 48.8044 18.7743 47.1175 19.5828C47.6678 20.2694 48.4281 20.6026 49.4486 20.6026C50.2419 20.6097 51.0238 20.4116 51.7196 20.0271V24.8634C50.6967 25.2955 49.597 25.512 48.4881 25.4995C45.937 25.4995 43.856 24.3888 42.2353 22.208L41.0347 20.5218ZM42.4554 15.2109C43.6959 15.2109 44.7064 14.7667 45.4968 13.9185C46.2871 13.0704 46.7073 11.9194 46.7073 10.5664C46.7073 9.21347 46.2971 8.10283 45.4968 7.25471C44.6964 6.40658 43.6959 5.92194 42.4554 5.92194C41.2148 5.92194 40.2144 6.3662 39.414 7.25471C38.6136 8.14322 38.2134 9.21347 38.2134 10.5664C38.2134 11.9194 38.6236 13.03 39.414 13.9185C40.2043 14.8071 41.2248 15.2109 42.4554 15.2109Z" fill="white"/>
<path d="M53.207 20.202L61.1287 0.831146H66.7784L74.7302 20.202H68.3768L66.9996 16.5951H60.7165L59.3192 20.202H53.207ZM62.4255 12.1643H65.2604L63.853 7.59286L62.4255 12.1643Z" fill="white"/>
<rect x="17.9121" y="25.3344" width="20.6623" height="5.16556" fill="#00DDB5"/>
<path d="M18.4484 10.0325V16.398L0.209961 23.0139V16.9344L11.0457 13.2152L0.209961 9.49603V3.41656L18.4484 10.0325Z" fill="#00DDB5"/>
</svg>
