<svg width="20" height="14" viewBox="0 0 20 14" fill="none" xmlns="http://www.w3.org/2000/svg">
<path d="M0 0H20V14H0V0Z" fill="#00237D"/>
<path d="M20 0H17.7593L11.6667 4.26852V0H8.33333V4.26852L2.23148 0H0V1.56481L4.42593 4.66667H0V9.33333H4.42593L0 12.4352V14H2.23148L8.33333 9.73148V14H11.6667V9.73148L17.7593 14H20V12.4352L15.5648 9.33333H20V4.66667H15.5648L20 1.56481V0Z" fill="white"/>
<path d="M0 14H1.49074L8.15741 9.33333H6.66667L0 14ZM6.66667 4.66667L0 0V1.03704L5.17593 4.66667H6.66667ZM20 0H18.5093L11.8426 4.66667H13.3333L20 0ZM13.3333 9.33333L20 14V12.9537L14.8241 9.33333H13.3333ZM11 0H9V5.60185H0V8.39815H9V14H11V8.39815H20V5.60185H11V0Z" fill="#CF142A"/>
</svg>
