<svg width="24" height="24" viewBox="0 0 25 24" fill="none" xmlns="http://www.w3.org/2000/svg">
<path d="M12.4995 1.2698C9.87424 1.25151 7.32898 2.17277 5.32359 3.86714C3.31821 5.56151 1.98496 7.91725 1.56472 10.5087C1.14447 13.1002 1.66496 15.7566 3.03213 17.9979C4.3993 20.2391 6.52299 21.9175 9.01952 22.7298C9.56952 22.8198 9.74952 22.4498 9.74952 22.1798V20.3398C6.71952 20.9798 6.07952 18.8798 6.07952 18.8798C5.52952 17.5898 4.79952 17.2298 4.79952 17.2298C3.87952 16.5798 4.89952 16.5798 4.89952 16.5798C5.99952 16.5798 6.62952 17.6798 6.62952 17.6798C7.54952 19.3298 9.19952 18.8798 9.83952 18.5998C9.83903 18.3239 9.89563 18.0508 10.0058 17.7979C10.1159 17.5449 10.2772 17.3174 10.4795 17.1298C8.00952 16.8598 5.43952 15.9398 5.43952 11.6298C5.43952 10.5298 5.89952 9.5298 6.63952 8.7898C6.44342 8.32627 6.34238 7.8281 6.34238 7.3248C6.34238 6.8215 6.44342 6.32332 6.63952 5.8598C6.63952 5.8598 7.54952 5.5798 9.74952 6.9598C11.5495 6.4698 13.4495 6.4698 15.2495 6.9598C17.3495 5.5798 18.2695 5.8598 18.2695 5.8598C18.4656 6.32332 18.5667 6.8215 18.5667 7.3248C18.5667 7.8281 18.4656 8.32627 18.2695 8.7898C19.0995 9.5298 19.4695 10.5298 19.4695 11.7298C19.4695 15.9398 16.8995 16.8598 14.4295 17.1298C14.8795 17.4998 15.2495 18.0498 15.2495 19.1498V22.1798C15.2495 22.4498 15.3495 22.8198 15.9795 22.7298C18.4761 21.9175 20.5998 20.2391 21.9669 17.9979C23.3341 15.7566 23.8546 13.1002 23.4343 10.5087C23.0141 7.91725 21.6808 5.56151 19.6755 3.86714C17.6701 2.17277 15.1248 1.25151 12.4995 1.2698Z" fill="#D9D9D9"/>
</svg>
