<svg width="250" height="38" viewBox="0 0 250 38" fill="none" xmlns="http://www.w3.org/2000/svg">
<path d="M135.904 26.0125C132.789 23.1909 131.262 19.5717 131.262 15.1245C131.262 10.6773 132.85 7.02749 135.935 4.23647C139.02 1.44545 142.99 0.00393883 147.755 0.00393883C148.932 -0.0208734 150.109 0.0715888 151.268 0.279972C152.074 0.434727 152.869 0.639592 153.65 0.893382L155.941 1.8135V10.0025C148.152 5.98468 140.15 8.65302 140.425 15.2472C140.425 17.5475 141.066 19.2957 142.441 20.5839C143.765 21.8458 145.533 22.5295 147.358 22.4854C148.855 22.4854 150.015 22.1787 150.81 21.6573V12.7015H159.759V25.7978C158.629 27.0247 156.918 28.0981 154.658 28.9569C152.327 29.8426 149.85 30.2796 147.358 30.2451C142.817 30.2451 138.999 28.8342 135.904 26.0125Z" fill="white"/>
<path d="M163.009 0.5H171.943V17.6345C171.943 20.7415 173.84 22.1258 176.288 22.1258C178.736 22.1258 180.602 20.7415 180.602 17.6345V0.5H189.506V17.573C189.506 21.6336 188.282 24.7714 185.743 26.9555C183.203 29.1396 180.113 30.247 176.288 30.247C172.463 30.247 169.312 29.1704 166.803 26.9555C164.294 24.7406 163.009 21.6336 163.009 17.573V0.5Z" fill="white"/>
<path d="M222.003 29.7471H211.497L203.734 19.3193H202.501V29.7471H193.505V0.5H207.615C210.912 0.5 213.592 1.36384 215.595 3.15322C216.568 3.9836 217.344 5.021 217.866 6.18984C218.389 7.35867 218.644 8.62949 218.614 9.90966C218.614 13.581 216.611 16.6353 213.253 18.3012L222.003 29.7471ZM206.568 12.748C208.262 12.748 209.371 11.8224 209.371 10.3724C209.371 8.92242 208.262 8.02773 206.568 8.02773H202.501V12.748H206.568Z" fill="white"/>
<path d="M223.502 0.5H232.437V17.6345C232.437 20.7415 234.334 22.1258 236.782 22.1258C239.23 22.1258 241.096 20.7415 241.096 17.6345V0.5H250V17.573C250 21.6336 248.776 24.7714 246.236 26.9555C243.697 29.1396 240.606 30.247 236.782 30.247C232.957 30.247 229.806 29.1704 227.266 26.9555C224.726 24.7406 223.502 21.6336 223.502 17.573V0.5Z" fill="white"/>
<path d="M123.688 11.5838C124.199 12.0699 124.602 12.6565 124.873 13.3062C125.143 13.9559 125.276 14.6547 125.262 15.3582C125.262 16.7796 124.699 18.1435 123.695 19.1529C122.692 20.1624 121.329 20.7357 119.904 20.7479C118.455 20.7479 117.194 20.2198 116.088 19.1636C115.581 18.6688 115.18 18.0763 114.909 17.4221C114.639 16.7679 114.505 16.0657 114.515 15.3582C114.5 14.6547 114.633 13.9559 114.904 13.3062C115.175 12.6565 115.578 12.0699 116.088 11.5838C116.582 11.0744 117.176 10.6711 117.832 10.3987C118.488 10.1263 119.193 9.9904 119.904 9.99945C120.609 9.99282 121.309 10.1299 121.96 10.4023C122.611 10.6748 123.199 11.0768 123.688 11.5838Z" fill="#20AEE3"/>
<path d="M61.6383 30.2299C57.7109 29.7726 54.5237 28.0957 52.0011 25.2144C49.4785 22.3332 48.27 18.9947 48.27 15.1988C48.27 10.9913 49.7201 7.43933 52.6657 4.46665C55.6113 1.49396 59.3272 0 63.7833 0C68.2394 0 71.9402 1.50921 74.8707 4.46665C77.8011 7.42408 79.2663 10.9913 79.2663 15.1988C79.2913 18.0442 78.5096 20.8375 77.0136 23.2495C75.5175 25.6615 73.3694 27.5915 70.8224 28.8122C71.6532 29.8488 72.8012 30.3519 74.342 30.3519C75.5397 30.3627 76.7203 30.0635 77.7709 29.4829V36.785C76.2264 37.4375 74.5661 37.7643 72.8919 37.7454C69.04 37.7454 65.898 36.0686 63.451 32.7757L61.6383 30.2299ZM63.7833 22.2113C65.6564 22.2113 67.182 21.5405 68.3753 20.26C69.5687 18.9794 70.2031 17.2416 70.2031 15.1988C70.2031 13.156 69.5838 11.4791 68.3753 10.1986C67.1669 8.91805 65.6564 8.18631 63.7833 8.18631C61.9102 8.18631 60.3997 8.85707 59.1912 10.1986C57.9828 11.5401 57.3786 13.156 57.3786 15.1988C57.3786 17.2416 57.9979 18.9185 59.1912 20.26C60.3846 21.6015 61.9253 22.2113 63.7833 22.2113Z" fill="white"/>
<path d="M80.0171 29.7471L91.9776 0.5H100.508L112.514 29.7471H102.921L100.842 24.3012H91.3553L89.2455 29.7471H80.0171ZM93.9356 17.6114H98.2159L96.0909 10.7092L93.9356 17.6114Z" fill="white"/>
<rect x="17.7021" y="24.8345" width="20.6623" height="5.16556" fill="#20AEE3"/>
<path d="M18.2384 9.5324V15.898L0 22.5139V16.4344L10.8358 12.7152L0 8.99597V2.9165L18.2384 9.5324Z" fill="#20AEE3"/>
</svg>
