<svg width="166" height="31" viewBox="0 0 166 31" fill="none" xmlns="http://www.w3.org/2000/svg">
<g id="Logo">
<g id="Logo_2">
<path id="Vector" d="M90.0124 17.7286C87.949 15.8597 86.9375 13.4627 86.9375 10.5172C86.9375 7.57175 87.9894 5.15443 90.0326 3.30589C92.0758 1.45735 94.7056 0.502609 97.8615 0.502609C98.641 0.486175 99.4203 0.547415 100.188 0.68543C100.722 0.787928 101.249 0.923613 101.766 1.0917L103.283 1.70111V7.12485C98.1244 4.46376 92.8243 6.23105 93.0064 10.5985C93.0064 12.122 93.4312 13.2799 94.3415 14.1331C95.2186 14.9688 96.3897 15.4217 97.5985 15.3925C98.5897 15.3925 99.3584 15.1894 99.8844 14.844V8.91245H105.812V17.5864C105.063 18.3989 103.93 19.1099 102.433 19.6787C100.889 20.2653 99.2491 20.5547 97.5985 20.5319C94.591 20.5319 92.0623 19.5974 90.0124 17.7286Z" fill="#252525"/>
<path id="Vector_2" d="M107.964 0.831055H113.881V12.1796C113.881 14.2374 115.138 15.1542 116.759 15.1542C118.38 15.1542 119.616 14.2374 119.616 12.1796V0.831055H125.514V12.1388C125.514 14.8282 124.703 16.9064 123.021 18.353C121.339 19.7996 119.292 20.533 116.759 20.533C114.226 20.533 112.139 19.8199 110.477 18.353C108.815 16.886 107.964 14.8282 107.964 12.1388V0.831055Z" fill="#252525"/>
<path id="Vector_3" d="M147.036 20.2019H140.078L134.936 13.2954H134.12V20.2019H128.162V0.831055H137.507C139.691 0.831055 141.466 1.40319 142.792 2.58833C143.437 3.1383 143.951 3.82539 144.297 4.59954C144.643 5.37368 144.812 6.21536 144.792 7.06324C144.792 9.49482 143.465 11.5177 141.241 12.6211L147.036 20.2019ZM136.814 8.94311C137.936 8.94311 138.67 8.33011 138.67 7.36974C138.67 6.40937 137.936 5.8168 136.814 5.8168H134.12V8.94311H136.814Z" fill="#252525"/>
<path id="Vector_4" d="M148.029 0.831055H153.947V12.1796C153.947 14.2374 155.203 15.1542 156.824 15.1542C158.446 15.1542 159.682 14.2374 159.682 12.1796V0.831055H165.579V12.1388C165.579 14.8282 164.768 16.9064 163.086 18.353C161.404 19.7996 159.358 20.533 156.824 20.533C154.291 20.533 152.204 19.8199 150.522 18.353C148.84 16.886 148.029 14.8282 148.029 12.1388V0.831055Z" fill="#252525"/>
<path id="Vector_5" d="M81.9214 8.17216C82.2592 8.49415 82.5262 8.88262 82.7056 9.31295C82.8849 9.74329 82.9727 10.2061 82.9632 10.672C82.9633 11.6134 82.5904 12.5168 81.9258 13.1854C81.2612 13.8539 80.3586 14.2336 79.4146 14.2418C78.4553 14.2418 77.6197 13.892 76.8873 13.1924C76.5514 12.8647 76.2858 12.4723 76.1067 12.039C75.9276 11.6057 75.8387 11.1406 75.8454 10.672C75.836 10.2061 75.9237 9.74329 76.1031 9.31295C76.2824 8.88262 76.5495 8.49415 76.8873 8.17216C77.2147 7.83481 77.6077 7.56772 78.0423 7.38727C78.4769 7.20683 78.9439 7.11685 79.4146 7.12284C79.8821 7.11845 80.3455 7.20925 80.7765 7.38968C81.2075 7.57011 81.5971 7.83637 81.9214 8.17216Z" fill="#20AEE3"/>
<path id="Vector_6" d="M40.8248 20.5218C38.2236 20.2189 36.1126 19.1083 34.4418 17.2C32.7711 15.2917 31.9707 13.0805 31.9707 10.5664C31.9707 7.77974 32.9311 5.4272 34.882 3.45834C36.8329 1.48948 39.2941 0.5 42.2454 0.5C45.1968 0.5 47.6479 1.49958 49.5888 3.45834C51.5297 5.4171 52.5001 7.77974 52.5001 10.5664C52.5166 12.451 51.9989 14.3011 51.0081 15.8986C50.0172 17.496 48.5945 18.7743 46.9076 19.5828C47.4578 20.2694 48.2182 20.6026 49.2386 20.6026C50.0319 20.6097 50.8138 20.4116 51.5097 20.0271V24.8634C50.4867 25.2955 49.3871 25.512 48.2782 25.4995C45.727 25.4995 43.6461 24.3888 42.0253 22.208L40.8248 20.5218ZM42.2454 15.2109C43.486 15.2109 44.4965 14.7667 45.2868 13.9185C46.0772 13.0704 46.4974 11.9194 46.4974 10.5664C46.4974 9.21347 46.0872 8.10283 45.2868 7.25471C44.4864 6.40658 43.486 5.92194 42.2454 5.92194C41.0048 5.92194 40.0044 6.3662 39.204 7.25471C38.4037 8.14322 38.0035 9.21347 38.0035 10.5664C38.0035 11.9194 38.4137 13.03 39.204 13.9185C39.9944 14.8071 41.0149 15.2109 42.2454 15.2109Z" fill="#252525"/>
<path id="Vector_7" d="M52.9971 20.2019L60.9187 0.831055H66.5684L74.5203 20.2019H68.1668L66.7896 16.595H60.5066L59.1092 20.2019H52.9971ZM62.2155 12.1642H65.0505L63.6431 7.59277L62.2155 12.1642Z" fill="#252525"/>
<rect id="Rectangle 1" x="17.7021" y="25.3345" width="20.6623" height="5.16556" fill="#20AEE3"/>
<path id="&#62;" d="M18.2384 10.0324V16.398L0 23.0139V16.9344L10.8358 13.2152L0 9.49597V3.4165L18.2384 10.0324Z" fill="#20AEE3"/>
</g>
</g>
</svg>
