<svg width="221" height="40" viewBox="0 0 221 40" fill="none" xmlns="http://www.w3.org/2000/svg">
<path d="M120.018 22.9714C117.267 20.4796 115.918 17.2836 115.918 13.3563C115.918 9.42899 117.321 6.2059 120.045 3.74118C122.769 1.27646 126.275 0.00347834 130.483 0.00347834C131.523 -0.0184331 132.562 0.0632193 133.585 0.24724C134.297 0.383903 135 0.564817 135.689 0.788936L137.712 1.60148V8.83312C130.834 5.28501 123.767 7.64139 124.01 13.4646C124.01 15.496 124.576 17.0398 125.79 18.1774C126.959 19.2918 128.521 19.8956 130.133 19.8566C131.454 19.8566 132.479 19.5858 133.18 19.1254V11.2166H141.083V22.7818C140.086 23.8652 138.575 24.8132 136.579 25.5715C134.52 26.3537 132.333 26.7396 130.133 26.7091C126.123 26.7091 122.751 25.4632 120.018 22.9714Z" fill="white"/>
<path d="M143.949 0.441406H151.839V15.5727C151.839 18.3165 153.514 19.5389 155.676 19.5389C157.838 19.5389 159.486 18.3165 159.486 15.5727V0.441406H167.349V15.5184C167.349 19.1043 166.268 21.8752 164.025 23.804C161.783 25.7327 159.054 26.7107 155.676 26.7107C152.298 26.7107 149.515 25.7599 147.3 23.804C145.084 21.848 143.949 19.1043 143.949 15.5184V0.441406Z" fill="white"/>
<path d="M196.048 26.2692H186.771L179.915 17.0606H178.827V26.2692H170.883V0.441406H183.343C186.254 0.441406 188.621 1.20425 190.39 2.78444C191.249 3.51773 191.935 4.43385 192.396 5.46604C192.857 6.49823 193.082 7.62048 193.056 8.75098C193.056 11.9931 191.287 14.6903 188.322 16.1615L196.048 26.2692ZM182.418 11.2575C183.914 11.2575 184.894 10.4401 184.894 9.15965C184.894 7.87916 183.914 7.08906 182.418 7.08906H178.827V11.2575H182.418Z" fill="white"/>
<path d="M197.371 0.441406H205.261V15.5727C205.261 18.3165 206.936 19.5389 209.098 19.5389C211.259 19.5389 212.908 18.3165 212.908 15.5727V0.441406H220.771V15.5184C220.771 19.1043 219.69 21.8752 217.447 23.804C215.204 25.7327 212.475 26.7107 209.098 26.7107C205.72 26.7107 202.937 25.7599 200.695 23.804C198.452 21.848 197.371 19.1043 197.371 15.5184V0.441406Z" fill="white"/>
<path d="M109.227 10.2295C109.678 10.6589 110.034 11.1768 110.273 11.7506C110.512 12.3244 110.629 12.9414 110.616 13.5627C110.616 14.8179 110.119 16.0224 109.233 16.9138C108.347 17.8052 107.144 18.3115 105.885 18.3223C104.606 18.3223 103.492 17.856 102.515 16.9232C102.067 16.4863 101.713 15.963 101.474 15.3853C101.235 14.8076 101.117 14.1875 101.126 13.5627C101.113 12.9414 101.23 12.3244 101.469 11.7506C101.709 11.1768 102.065 10.6589 102.515 10.2295C102.952 9.77974 103.476 9.42362 104.055 9.18303C104.635 8.94245 105.257 8.82246 105.885 8.83045C106.508 8.8246 107.126 8.94567 107.701 9.18624C108.275 9.42681 108.795 9.78182 109.227 10.2295Z" fill="white"/>
<path d="M54.4343 26.6957C50.9661 26.2918 48.1514 24.811 45.9237 22.2666C43.6961 19.7222 42.6289 16.774 42.6289 13.4219C42.6289 9.70631 43.9095 6.56959 46.5107 3.94445C49.1119 1.3193 52.3934 0 56.3285 0C60.2636 0 63.5318 1.33277 66.1197 3.94445C68.7075 6.55613 70.0014 9.70631 70.0014 13.4219C70.0234 15.9347 69.3332 18.4014 68.012 20.5314C66.6909 22.6614 64.7939 24.3658 62.5447 25.4437C63.2784 26.3591 64.2922 26.8034 65.6528 26.8034C66.7105 26.813 67.753 26.5488 68.6808 26.0361V32.4845C67.3169 33.0607 65.8507 33.3493 64.3722 33.3326C60.9706 33.3326 58.196 31.8518 56.035 28.9439L54.4343 26.6957ZM56.3285 19.6145C57.9826 19.6145 59.3299 19.0222 60.3837 17.8914C61.4375 16.7605 61.9978 15.2258 61.9978 13.4219C61.9978 11.6179 61.4509 10.1371 60.3837 9.00627C59.3165 7.87544 57.9826 7.22925 56.3285 7.22925C54.6744 7.22925 53.3405 7.82159 52.2733 9.00627C51.2062 10.1909 50.6726 11.6179 50.6726 13.4219C50.6726 15.2258 51.2195 16.7067 52.2733 17.8914C53.3271 19.0761 54.6878 19.6145 56.3285 19.6145Z" fill="white"/>
<path d="M70.6602 26.2692L81.2223 0.441406H88.7553L99.3577 26.2692H90.8865L89.0502 21.46H80.6728L78.8097 26.2692H70.6602ZM82.9514 15.5523H86.7313L84.8548 9.45702L82.9514 15.5523Z" fill="white"/>
<rect x="23.6016" y="33.1128" width="27.5496" height="6.88741" fill="white"/>
<path d="M24.3179 12.7099V21.1973L0 30.0184V21.9125L14.4477 16.9536L0 11.9946V3.88867L24.3179 12.7099Z" fill="white"/>
</svg>
