<svg width="20" height="20" viewBox="0 0 20 20" fill="none" xmlns="http://www.w3.org/2000/svg">
<g id="CoPresentFilled">
<path id="Vector" d="M17.5002 2.5H2.50016C1.5835 2.5 0.833496 3.25 0.833496 4.16667V10.8333H2.50016V4.16667H17.5002V17.5C18.4168 17.5 19.1668 16.75 19.1668 15.8333V4.16667C19.1668 3.25 18.4168 2.5 17.5002 2.5Z" fill="#20AEE3"/>
<path id="Vector_2" d="M7.49984 11.6667C9.34079 11.6667 10.8332 10.1743 10.8332 8.33333C10.8332 6.49238 9.34079 5 7.49984 5C5.65889 5 4.1665 6.49238 4.1665 8.33333C4.1665 10.1743 5.65889 11.6667 7.49984 11.6667Z" fill="#20AEE3"/>
<path id="Vector_3" d="M12.8252 13.8C11.4252 13.0833 9.6085 12.5 7.50016 12.5C5.39183 12.5 3.57516 13.0833 2.17516 13.8C1.34183 14.225 0.833496 15.0833 0.833496 16.0167V18.3333H14.1668V16.0167C14.1668 15.0833 13.6585 14.225 12.8252 13.8Z" fill="#20AEE3"/>
</g>
</svg>
