<svg width="24" height="24" viewBox="0 0 24 24" fill="none" xmlns="http://www.w3.org/2000/svg">
<g id="VK">
<path id="Vector" fill-rule="evenodd" clip-rule="evenodd" d="M4.26538 4.26538C3 5.53077 3 7.56697 3 11.64V12.36C3 16.433 3 18.4692 4.26538 19.7346C5.53077 21 7.56697 21 11.64 21H12.36C16.433 21 18.4692 21 19.7346 19.7346C21 18.4692 21 16.433 21 12.36V11.64C21 7.56697 21 5.53077 19.7346 4.26538C18.4692 3 16.433 3 12.36 3H11.64C7.56697 3 5.53077 3 4.26538 4.26538ZM8.09244 8.47496C8.16006 11.9098 9.6753 13.3652 10.875 13.6653V8.47496H12.8101V11.4378C13.995 11.3103 15.2398 9.95993 15.6603 8.47496H17.5954C17.2728 10.3051 15.9224 11.6555 14.9629 12.2099C15.9224 12.6601 17.4601 13.8379 18.0455 15.9674H15.9153C15.4574 14.5424 14.3176 13.4399 12.8101 13.2899V15.9674H12.5776C8.47496 15.9674 6.1348 13.1553 6.03756 8.47496H8.09244Z" fill="#20AEE3"/>
</g>
</svg>
