<svg width="70" height="24" viewBox="0 0 80 24" fill="none" xmlns="http://www.w3.org/2000/svg">
<path d="M12.49 2C6.97 2 2.5 6.48 2.5 12C2.5 17.52 6.97 22 12.49 22C18.02 22 22.5 17.52 22.5 12C22.5 6.48 18.02 2 12.49 2ZM19.42 8H16.47C16.15 6.75 15.69 5.55 15.09 4.44C16.93 5.07 18.46 6.35 19.42 8ZM12.5 4.04C13.33 5.24 13.98 6.57 14.41 8H10.59C11.02 6.57 11.67 5.24 12.5 4.04ZM4.76 14C4.6 13.36 4.5 12.69 4.5 12C4.5 11.31 4.6 10.64 4.76 10H8.14C8.06 10.66 8 11.32 8 12C8 12.68 8.06 13.34 8.14 14H4.76ZM5.58 16H8.53C8.85 17.25 9.31 18.45 9.91 19.56C8.07 18.93 6.54 17.66 5.58 16ZM8.53 8H5.58C6.54 6.34 8.07 5.07 9.91 4.44C9.31 5.55 8.85 6.75 8.53 8ZM12.5 19.96C11.67 18.76 11.02 17.43 10.59 16H14.41C13.98 17.43 13.33 18.76 12.5 19.96ZM14.84 14H10.16C10.07 13.34 10 12.68 10 12C10 11.32 10.07 10.65 10.16 10H14.84C14.93 10.65 15 11.32 15 12C15 12.68 14.93 13.34 14.84 14ZM15.09 19.56C15.69 18.45 16.15 17.25 16.47 16H19.42C18.46 17.65 16.93 18.93 15.09 19.56ZM16.86 14C16.94 13.34 17 12.68 17 12C17 11.32 16.94 10.66 16.86 10H20.24C20.4 10.64 20.5 11.31 20.5 12C20.5 12.69 20.4 13.36 20.24 14H16.86Z" fill="#20AEE3"/>
<path d="M36.8632 9.688V18.328H36.0112V14.812C35.7472 15.22 35.4072 15.532 34.9912 15.748C34.5832 15.956 34.1232 16.06 33.6112 16.06C33.0112 16.06 32.4712 15.928 31.9912 15.664C31.5192 15.392 31.1472 15.012 30.8752 14.524C30.6032 14.036 30.4672 13.476 30.4672 12.844C30.4672 12.22 30.6032 11.664 30.8752 11.176C31.1472 10.688 31.5232 10.312 32.0032 10.048C32.4832 9.776 33.0192 9.64 33.6112 9.64C34.1392 9.64 34.6112 9.752 35.0272 9.976C35.4512 10.2 35.7912 10.52 36.0472 10.936V9.688H36.8632ZM33.6832 15.304C34.1232 15.304 34.5192 15.204 34.8712 15.004C35.2312 14.796 35.5112 14.504 35.7112 14.128C35.9192 13.752 36.0232 13.324 36.0232 12.844C36.0232 12.364 35.9192 11.94 35.7112 11.572C35.5112 11.196 35.2312 10.904 34.8712 10.696C34.5192 10.488 34.1232 10.384 33.6832 10.384C33.2352 10.384 32.8312 10.488 32.4712 10.696C32.1192 10.904 31.8392 11.196 31.6312 11.572C31.4312 11.94 31.3312 12.364 31.3312 12.844C31.3312 13.324 31.4312 13.752 31.6312 14.128C31.8392 14.504 32.1192 14.796 32.4712 15.004C32.8312 15.204 33.2352 15.304 33.6832 15.304ZM41.844 9.64C42.668 9.64 43.3 9.848 43.74 10.264C44.18 10.672 44.4 11.28 44.4 12.088V16H43.584V15.016C43.392 15.344 43.108 15.6 42.732 15.784C42.364 15.968 41.924 16.06 41.412 16.06C40.708 16.06 40.148 15.892 39.732 15.556C39.316 15.22 39.108 14.776 39.108 14.224C39.108 13.688 39.3 13.256 39.684 12.928C40.076 12.6 40.696 12.436 41.544 12.436H43.548V12.052C43.548 11.508 43.396 11.096 43.092 10.816C42.788 10.528 42.344 10.384 41.76 10.384C41.36 10.384 40.976 10.452 40.608 10.588C40.24 10.716 39.924 10.896 39.66 11.128L39.276 10.492C39.596 10.22 39.98 10.012 40.428 9.868C40.876 9.716 41.348 9.64 41.844 9.64ZM41.544 15.388C42.024 15.388 42.436 15.28 42.78 15.064C43.124 14.84 43.38 14.52 43.548 14.104V13.072H41.568C40.488 13.072 39.948 13.448 39.948 14.2C39.948 14.568 40.088 14.86 40.368 15.076C40.648 15.284 41.04 15.388 41.544 15.388ZM47.1982 16.06C47.0222 16.06 46.8702 15.996 46.7422 15.868C46.6222 15.74 46.5622 15.584 46.5622 15.4C46.5622 15.216 46.6222 15.064 46.7422 14.944C46.8702 14.816 47.0222 14.752 47.1982 14.752C47.3742 14.752 47.5262 14.816 47.6542 14.944C47.7822 15.064 47.8462 15.216 47.8462 15.4C47.8462 15.584 47.7822 15.74 47.6542 15.868C47.5262 15.996 47.3742 16.06 47.1982 16.06ZM55.7254 9.688V15.232C55.7254 16.304 55.4614 17.096 54.9334 17.608C54.4134 18.128 53.6254 18.388 52.5694 18.388C51.9854 18.388 51.4294 18.3 50.9014 18.124C50.3814 17.956 49.9574 17.72 49.6294 17.416L50.0614 16.768C50.3654 17.04 50.7334 17.252 51.1654 17.404C51.6054 17.556 52.0654 17.632 52.5454 17.632C53.3454 17.632 53.9334 17.444 54.3094 17.068C54.6854 16.7 54.8734 16.124 54.8734 15.34V14.536C54.6094 14.936 54.2614 15.24 53.8294 15.448C53.4054 15.656 52.9334 15.76 52.4134 15.76C51.8214 15.76 51.2814 15.632 50.7934 15.376C50.3134 15.112 49.9334 14.748 49.6534 14.284C49.3814 13.812 49.2454 13.28 49.2454 12.688C49.2454 12.096 49.3814 11.568 49.6534 11.104C49.9334 10.64 50.3134 10.28 50.7934 10.024C51.2734 9.768 51.8134 9.64 52.4134 9.64C52.9494 9.64 53.4334 9.748 53.8654 9.964C54.2974 10.18 54.6454 10.492 54.9094 10.9V9.688H55.7254ZM52.4974 15.004C52.9534 15.004 53.3654 14.908 53.7334 14.716C54.1014 14.516 54.3854 14.24 54.5854 13.888C54.7934 13.536 54.8974 13.136 54.8974 12.688C54.8974 12.24 54.7934 11.844 54.5854 11.5C54.3854 11.148 54.1014 10.876 53.7334 10.684C53.3734 10.484 52.9614 10.384 52.4974 10.384C52.0414 10.384 51.6294 10.48 51.2614 10.672C50.9014 10.864 50.6174 11.136 50.4094 11.488C50.2094 11.84 50.1094 12.24 50.1094 12.688C50.1094 13.136 50.2094 13.536 50.4094 13.888C50.6174 14.24 50.9014 14.516 51.2614 14.716C51.6294 14.908 52.0414 15.004 52.4974 15.004ZM64.1959 9.688V16H63.3799V14.848C63.1559 15.232 62.8479 15.532 62.4559 15.748C62.0639 15.956 61.6159 16.06 61.1119 16.06C60.2879 16.06 59.6359 15.832 59.1559 15.376C58.6839 14.912 58.4479 14.236 58.4479 13.348V9.688H59.2999V13.264C59.2999 13.928 59.4639 14.432 59.7919 14.776C60.1199 15.12 60.5879 15.292 61.1959 15.292C61.8599 15.292 62.3839 15.092 62.7679 14.692C63.1519 14.284 63.3439 13.72 63.3439 13V9.688H64.1959ZM67.7981 10.924C67.9981 10.5 68.2941 10.18 68.6861 9.964C69.0861 9.748 69.5781 9.64 70.1621 9.64V10.468L69.9581 10.456C69.2941 10.456 68.7741 10.66 68.3981 11.068C68.0221 11.476 67.8341 12.048 67.8341 12.784V16H66.9821V9.688H67.7981V10.924ZM77.8865 9.688V16H77.0705V14.848C76.8465 15.232 76.5385 15.532 76.1465 15.748C75.7545 15.956 75.3065 16.06 74.8025 16.06C73.9785 16.06 73.3265 15.832 72.8465 15.376C72.3745 14.912 72.1385 14.236 72.1385 13.348V9.688H72.9905V13.264C72.9905 13.928 73.1545 14.432 73.4825 14.776C73.8105 15.12 74.2785 15.292 74.8865 15.292C75.5505 15.292 76.0745 15.092 76.4585 14.692C76.8425 14.284 77.0345 13.72 77.0345 13V9.688H77.8865Z" fill="#20AEE3"/>
</svg>
