<svg width="50" height="50" viewBox="0 0 50 50" fill="none" xmlns="http://www.w3.org/2000/svg">
<rect width="52" height="52" rx="20" fill="white"/>
<g clip-path="url(#clip0_57500_18660)">
<path fill-rule="evenodd" clip-rule="evenodd" d="M25.9493 9C16.5768 9 9 16.5625 9 25.9183C9 33.397 13.8547 39.7275 20.5895 41.968C21.4315 42.1365 21.7399 41.604 21.7399 41.1561C21.7399 40.7639 21.7122 39.4195 21.7122 38.0187C16.9973 39.0272 16.0154 36.0019 16.0154 36.0019C15.2577 34.0412 14.135 33.5372 14.135 33.5372C12.5919 32.5008 14.2474 32.5008 14.2474 32.5008C15.9592 32.6129 16.8575 34.2374 16.8575 34.2374C18.3726 36.8142 20.814 36.0861 21.7961 35.6379C21.9363 34.5454 22.3856 33.7892 22.8626 33.3691C19.1022 32.9769 15.1457 31.5204 15.1457 25.0218C15.1457 23.1732 15.8187 21.6607 16.8852 20.4843C16.717 20.0643 16.1275 18.3273 17.0538 16.0025C17.0538 16.0025 18.485 15.5543 21.7118 17.7392C23.0934 17.3688 24.5181 17.1804 25.9493 17.1788C27.3805 17.1788 28.8393 17.3751 30.1865 17.7392C33.4137 15.5543 34.8449 16.0025 34.8449 16.0025C35.7712 18.3273 35.1814 20.0643 35.0131 20.4843C36.1077 21.6607 36.753 23.1732 36.753 25.0218C36.753 31.5204 32.7965 32.9487 29.008 33.3691C29.6255 33.9012 30.1584 34.9095 30.1584 36.5062C30.1584 38.7749 30.1307 40.5958 30.1307 41.1557C30.1307 41.604 30.4394 42.1365 31.2811 41.9684C38.0159 39.7271 42.8706 33.397 42.8706 25.9183C42.8983 16.5625 35.2938 9 25.9493 9Z" fill="#8F82FF"/>
</g>
<defs>
<clipPath id="clip0_57500_18660">
<rect width="34" height="33" fill="white" transform="translate(9 9)"/>
</clipPath>
</defs>
</svg>
