<svg width="52" height="52" viewBox="0 0 52 52" fill="none" xmlns="http://www.w3.org/2000/svg">
<rect width="52" height="52" rx="20" fill="white"/>
<path d="M13.3092 12.874H37.2561C37.5675 12.874 37.8661 12.9977 38.0864 13.2179C38.3066 13.4382 38.4303 13.7368 38.4303 14.0482C38.4303 14.3597 38.3066 14.6583 38.0864 14.8785C37.8661 15.0987 37.5675 15.2225 37.2561 15.2225H13.3092C12.9981 15.2222 12.6998 15.0984 12.4798 14.8784C12.2598 14.6584 12.1361 14.3601 12.1357 14.049C12.1357 13.7377 12.2593 13.439 12.4793 13.2187C12.6994 12.9984 12.9978 12.8744 13.3092 12.874Z" fill="#696969"/>
<path d="M13.5186 10.5H18.3322V11.6109H13.5186V10.5Z" fill="#009FE3"/>
<path d="M19.8154 10.5H24.6295V11.6109H19.8154V10.5Z" fill="#C7D302"/>
<path d="M26.0273 10.5H30.843V11.6109H26.0273V10.5Z" fill="#F07E16"/>
<path d="M32.2148 10.5H37.0289V11.6109H32.2148V10.5ZM32.2148 16.4453H37.0289V24.584H32.2148V16.4453Z" fill="#DF2815"/>
<path d="M26.0273 16.4453H30.8523V29.6668H26.0273V16.4453Z" fill="#F07E16"/>
<path d="M19.8154 16.4453H24.6295V36.2492H19.8154V16.4453Z" fill="#C7D302"/>
<path d="M13.5186 16.4453H18.3322V40.5828H13.5186V16.4453Z" fill="#009FE3"/>
</svg>
